<?xml version="1.0" encoding="UTF-8" standalone="no"?>
<!-- Created with Inkscape (http://www.inkscape.org/) -->

<svg
   xmlns:dc="http://purl.org/dc/elements/1.1/"
   xmlns:cc="http://creativecommons.org/ns#"
   xmlns:rdf="http://www.w3.org/1999/02/22-rdf-syntax-ns#"
   xmlns:svg="http://www.w3.org/2000/svg"
   xmlns="http://www.w3.org/2000/svg"
   xmlns:xlink="http://www.w3.org/1999/xlink"
   xmlns:sodipodi="http://sodipodi.sourceforge.net/DTD/sodipodi-0.dtd"
   xmlns:inkscape="http://www.inkscape.org/namespaces/inkscape"
   id="svg2"
   version="1.1"
   inkscape:version="0.48.4 r9939"
   width="2481"
   height="663"
   sodipodi:docname="header.svg">
  <metadata
     id="metadata8">
    <rdf:RDF>
      <cc:Work
         rdf:about="">
        <dc:format>image/svg+xml</dc:format>
        <dc:type
           rdf:resource="http://purl.org/dc/dcmitype/StillImage" />
        <dc:title />
      </cc:Work>
    </rdf:RDF>
  </metadata>
  <defs
     id="defs6" />
  <sodipodi:namedview
     pagecolor="#ffffff"
     bordercolor="#666666"
     borderopacity="1"
     objecttolerance="10"
     gridtolerance="10"
     guidetolerance="10"
     inkscape:pageopacity="0"
     inkscape:pageshadow="2"
     inkscape:window-width="1680"
     inkscape:window-height="1033"
     id="namedview4"
     showgrid="false"
     inkscape:zoom="0.52995012"
     inkscape:cx="1157.127"
     inkscape:cy="254.85792"
     inkscape:window-x="1920"
     inkscape:window-y="0"
     inkscape:window-maximized="1"
     inkscape:current-layer="layer1" />
  <g
     inkscape:groupmode="layer"
     id="layer2"
     inkscape:label="artwork"
     sodipodi:insensitive="true">
    <image
       sodipodi:absref="/home/deevad/Sources/Test/lib/../gfx_Pepper-and-Carrot_by-David-Revoy_EYYP00.png"
       xlink:href="../gfx_Pepper-and-Carrot_by-David-Revoy_EYYP00.png"
       width="2481"
       height="663"
       id="image10"
       x="0"
       y="0" />
  </g>
  <g
     inkscape:groupmode="layer"
     id="layer1"
     inkscape:label="txt"
     style="display:inline">
    <flowRoot
       xml:space="preserve"
       id="flowRoot2987"
       style="font-size:12px;font-style:normal;font-variant:normal;font-weight:normal;font-stretch:normal;line-height:125%;letter-spacing:0px;word-spacing:0px;fill:#301b0b;fill-opacity:1;stroke:none;display:inline;font-family:Arial;-inkscape-font-specification:Arial"
       transform="translate(-748.44912,-120.8471)"><flowRegion
         id="flowRegion2989"><rect
           id="rect2991"
           width="2405.8"
           height="107.55731"
           x="739.22333"
           y="644.36664"
           style="fill:#301b0b;fill-opacity:1" /></flowRegion><flowPara
         id="flowPara2993"
         style="font-size:72px;font-style:normal;font-variant:normal;font-weight:normal;font-stretch:normal;text-align:center;text-anchor:middle;fill:#301b0b;fill-opacity:1;font-family:Lavi;-inkscape-font-specification:Lavi">Episode !XX : Your title here</flowPara></flowRoot>    <path
       style="fill:#301b0b;fill-opacity:1;stroke:none;display:inline"
       d="m 717.17849,501.65562 c -1.97526,-1.73425 -4.24414,-4.41591 -5.0423,-5.95927 l -1.45121,-2.8061 0,-4.10128 0,-4.10126 2.45826,-2.45822 2.45826,-2.45824 1.79817,-0.0318 c 0.98893,-0.0181 2.66715,-0.68922 3.72914,-1.49266 l 1.93099,-1.46083 0.75006,-5.26748 0.75005,-5.26746 0.0725,-22.85 0.0725,-22.85 -1.03683,-1.93717 -1.03664,-1.93716 -1.78609,0 c -0.98229,0 -4.17511,-0.70951 -7.09524,-1.57667 l -5.30916,-1.57667 -2.3838,-2.38382 -2.38379,-2.38381 0,-1.54779 0,-1.54777 5.75854,-0.0413 5.75875,-0.0412 4.50678,-2.21209 4.50677,-2.2121 0.28618,-35.05257 0.28598,-35.05257 -1.18858,-4.33255 -1.18878,-4.33256 -2.10205,-1.36332 -2.10185,-1.3633 -8.7632,-0.70126 -8.76299,-0.70125 0,-1.19951 0,-1.19952 4.42929,-4.49291 4.4295,-4.49291 12.67568,-5.72939 12.67549,-5.72938 1.92897,0.61222 c 1.06079,0.33673 3.27855,1.74783 4.92799,3.1358 l 2.99902,2.52359 0,1.34169 c 0,0.73792 0.7082,2.04988 1.57397,2.91547 l 1.57377,1.57377 10.33214,0 10.33213,0 8.6825,2.51606 c 4.77524,1.38383 10.85579,3.61748 13.51248,4.96365 2.65649,1.3462 8.40981,5.14506 12.78517,8.44195 l 7.95498,5.99435 2.74926,3.9671 2.74927,3.96715 1.4335,4.76333 1.4335,4.76335 0,6.76212 0,6.76211 -1.87424,6.02233 -1.87443,6.02234 -3.7048,6.62484 -3.7048,6.62483 -6.02339,6.43903 -6.02339,6.43903 -6.67483,4.91903 c -3.67119,2.70548 -8.92823,6.03434 -11.68232,7.39747 -2.7541,1.36314 -10.19026,4.19439 -16.52478,6.29171 -6.33452,2.0973 -12.53139,4.1811 -13.77068,4.63065 l -2.25339,0.81737 0,21.5993 0,21.59928 2.4174,2.41751 2.41761,2.4175 2.84043,0.60198 c 1.5621,0.33107 3.59754,1.00961 4.52308,1.50782 l 1.68265,0.90584 4.3671,-0.0875 c 2.40191,-0.0481 6.6678,0.22878 9.47985,0.61554 l 5.11294,0.70318 3.18175,-1.64541 3.18195,-1.64539 2.94911,0.64772 c 1.62187,0.35625 4.96925,0.64774 7.43817,0.64774 2.46893,0 4.48907,0.21077 4.48907,0.46839 0,0.25762 -1.6275,1.14838 -3.61665,1.97948 -3.64905,1.52469 -11.49677,6.4501 -16.7697,10.52516 l -2.85995,2.21024 -6.51645,1.80696 -6.51625,1.80693 -4.64464,2.95305 -4.64483,2.95308 -7.51123,2.12193 c -4.13104,1.16706 -9.80426,2.78209 -12.60665,3.58892 l -5.09563,1.46694 -4.13346,0 -4.13346,0 -3.5913,-3.15317 z m 44.23097,-107.46049 8.86503,-4.45447 8.07311,-6.48109 8.07292,-6.48112 4.83622,-5.83959 4.83602,-5.83959 2.86378,-6.00902 2.86357,-6.009 8.1e-4,-4.30613 8e-4,-4.30611 -1.4663,-2.83548 c -0.80641,-1.55952 -2.86438,-4.01197 -4.57339,-5.44991 l -3.10709,-2.61445 -5.69193,-1.70941 -5.69214,-1.70943 -8.51264,-0.0264 -8.51284,-0.0264 -5.53355,1.2508 -5.53355,1.25083 -3.22965,1.96399 -3.22945,1.96399 0,30.01001 0,30.01003 1.75248,1.0208 c 0.96399,0.56146 2.27029,1.03452 2.90282,1.05126 0.63253,0.0161 5.1393,-1.97403 10.01497,-4.424 z m 73.46182,109.0317 c -1.37695,-0.89032 -3.73418,-3.21306 -5.23792,-5.16162 l -2.73417,-3.54285 -0.61622,-3.28437 -0.61603,-3.28435 1.34737,-2.83932 1.34736,-2.83931 4.42527,-2.12362 4.42527,-2.12364 1.33328,-1.82342 1.33327,-1.82342 0,-27.72664 0,-27.72661 -5.25784,-0.58741 c -2.89175,-0.32306 -7.02359,-0.94386 -9.18159,-1.37952 l -3.92376,-0.7921 -0.31636,-0.99787 c -0.17308,-0.54885 0.0342,-1.55117 0.46368,-2.22739 l 0.78024,-1.22947 7.74186,-1.48126 c 4.25783,-0.81469 8.18098,-1.75272 8.71771,-2.0845 l 0.97606,-0.60324 0,-40.55147 0,-40.55146 -1.46127,-2.82597 -1.46147,-2.82598 -8.30314,-1.17936 c -4.56695,-0.64863 -9.76804,-1.40301 -11.55815,-1.67643 l -3.25501,-0.49708 0,-0.78153 c 0,-0.42985 1.0141,-1.70501 2.25339,-2.83367 2.45243,-2.23331 15.09088,-10.31505 16.13094,-10.31505 0.35279,0 4.6561,-1.80761 9.56256,-4.01692 l 8.92097,-4.01692 2.84627,1.08212 c 1.56532,0.59516 3.63557,1.79661 4.60056,2.66988 l 1.75449,1.58777 0,2.73248 0,2.73249 2.25339,0.60386 c 1.23929,0.33215 6.76922,0.61005 12.28848,0.61758 l 10.0351,0.0141 7.1856,1.99122 c 3.95213,1.09515 9.74892,3.12481 12.88176,4.51033 l 5.69616,2.51912 6.62734,4.93143 c 3.64523,2.7123 8.2953,6.65411 10.33375,8.75958 l 3.70621,3.82812 2.22239,5.00751 2.2222,5.0075 0.44798,7.5638 0.44818,7.56379 -2.93119,8.50449 -2.9314,8.50447 -3.85574,5.8088 c -2.12056,3.19485 -6.11475,8.28062 -8.87589,11.30174 l -5.02017,5.49289 -3.19382,-0.59917 -3.19383,-0.59916 -1.04428,1.27123 c -0.57437,0.69918 -1.20005,2.39368 -1.39063,3.76555 l -0.34635,2.49433 -4.92799,3.2198 -4.928,3.21983 -12.42895,4.55125 -12.42915,4.55128 -2.17229,0.0161 c -1.19461,0.008 -2.84808,0.44244 -3.67441,0.96448 l -1.50232,0.94915 0,21.48761 0,21.48761 2.38762,2.54228 2.38722,2.54228 5.20088,1.07966 5.20069,1.07968 9.93829,-0.0286 c 5.46573,-0.0161 12.55574,-0.0801 15.7552,-0.14329 l 5.81731,-0.11472 0.68405,0.68415 0.68424,0.68415 -1.99458,1.17 c -1.09701,0.6435 -4.86218,2.41501 -8.36673,3.93668 l -6.37216,2.76669 -2.96863,2.49797 c -1.63273,1.37385 -3.54661,2.49792 -4.253,2.49792 l -1.28437,0 -4.3975,3.86327 c -2.41861,2.12477 -6.32748,4.84543 -8.68632,6.04593 l -4.28882,2.18269 -9.73222,2.64554 -9.73201,2.64554 -5.00748,0.34043 -5.00769,0.34044 -2.50374,-1.61877 z m 40.84072,-108.04397 7.23391,-3.46672 7.25966,-5.38931 7.25967,-5.38928 7.01051,-7.43171 7.01052,-7.43167 2.80642,-5.7893 2.80663,-5.78928 0.50714,-4.71318 0.50735,-4.71317 -1.81144,-3.47974 -1.81165,-3.47972 -4.00586,-2.78632 -4.00607,-2.78632 -7.51143,-1.5891 -7.51123,-1.58913 -6.50961,0.58085 c -3.58042,0.31946 -9.21379,1.27069 -12.51891,2.11384 l -6.0089,1.53302 -2.29686,2.59279 -2.29685,2.59282 0.29382,28.28435 0.29382,28.28436 1.37454,1.65433 1.37453,1.65431 1.65829,0 c 0.91186,0 4.9133,-1.56002 8.892,-3.46672 z m 345.2383,77.6497 c -2.7541,-0.98168 -7.3015,-2.94784 -10.1051,-4.36929 l -5.0977,-2.58442 -3.1586,-3.59741 c -1.7374,-1.97858 -4.1606,-5.50026 -5.3852,-7.82596 l -2.2266,-4.22855 -0.032,-7.51125 -0.032,-7.51126 3.1618,-6.67371 3.1618,-6.67371 7.7715,-8.13423 7.7714,-8.1342 -2.8135,-5.88629 -2.8132,-5.88628 0.6007,-3.00411 0.6007,-3.00413 -1.4333,-1.18959 -1.4333,-1.18958 1.5545,-3.00596 1.5544,-3.00598 -2.2226,-2.36583 -2.2228,-2.36586 0.6352,-4.63322 0.6351,-4.63322 1.9948,-4.50956 1.9948,-4.50955 4.259,-5.08708 4.2593,-5.08708 4.3965,-2.78821 4.3964,-2.7882 5.4241,-1.21384 5.4239,-1.21381 5.2142,1.64724 5.2141,1.64725 5.7175,3.58075 5.7173,3.58074 3.6482,6.00582 3.6485,6.00581 0.5124,3.82053 0.5126,3.82052 -2.211,7.00528 -2.2109,7.00529 -3.8479,4.8997 c -2.1163,2.69484 -5.5023,7.37842 -7.5243,10.40796 -2.0221,3.02955 -5.026,6.70595 -6.6752,8.16978 l -2.9984,2.6615 0.8527,1.45461 c 0.4689,0.80005 4.9563,5.81115 9.9717,11.13581 l 9.1192,9.68117 1.196,-1.44116 1.1962,-1.44119 0.2013,-2.84186 0.2012,-2.84186 -3.7507,-0.31053 -3.7504,-0.31051 -2.5088,-3.28928 -2.509,-3.28925 0,-2.0873 0,-2.08732 1.4347,-1.4347 1.4347,-1.43469 8.3299,-2.58966 c 4.5817,-1.42432 10.5835,-3.10167 13.3376,-3.72745 l 5.0075,-1.13781 12.018,-0.39515 c 6.61,-0.21735 14.3841,-0.66306 17.276,-0.99049 l 5.2579,-0.59527 -6e-4,1.32393 -4e-4,1.32394 -7.1226,6.50977 c -3.9171,3.58037 -8.5364,7.91693 -10.2648,9.6368 l -3.1425,3.12704 -4.8851,0.70916 c -2.6869,0.39004 -5.5037,0.94645 -6.2594,1.23649 l -1.3742,0.52734 0,4.86278 0,4.86279 -2.1368,5.71107 -2.1369,5.71105 2.8777,2.08814 c 1.5826,1.14849 4.6848,3.47912 6.894,5.17917 l 4.0163,3.09101 -0.1852,1.41575 c -0.1026,0.77865 -0.8092,3.1023 -1.5709,5.16363 l -1.3846,3.74791 -2.3595,2.51149 -2.3594,2.51149 -3.0803,-0.004 -3.0803,-0.004 -3.2792,-1.99927 c -1.8036,-1.09906 -3.8835,-1.99873 -4.6221,-1.99873 -0.7386,0 -2.4888,-0.90135 -3.8893,-2.00301 -1.4007,-1.10166 -3.1514,-1.99146 -3.8908,-1.97736 -0.7394,0.0141 -3.8231,1.60809 -6.8525,3.54217 l -5.5084,3.51657 -9.4744,2.96758 -9.4744,2.96756 -5.0474,-0.0732 -5.0473,-0.0733 -5.0075,-1.78484 z m 24.3013,-24.23629 4.4029,-2.13141 0.4904,-1.2779 0.4903,-1.27789 -10.3356,-10.1049 -10.3358,-10.10491 -1.2091,-0.006 -1.2093,-0.006 -2.7967,3.68653 c -1.5384,2.02758 -4.2615,5.0399 -6.0518,6.69403 l -3.2548,3.00751 0,1.35441 0,1.35439 4.2562,4.34277 c 2.3412,2.38853 5.1578,4.83717 6.2595,5.4414 l 2.003,1.0986 6.444,0.0304 6.4438,0.0304 4.4029,-2.13141 z m -5.3575,-61.55159 7.732,-6.59741 1.9312,-3.16724 1.9314,-3.16724 0,-3.17803 0,-3.17805 -2.4834,-2.95144 -2.4835,-2.95146 -3.008,-1.246 -3.0083,-1.24597 -3.4615,0.64939 -3.4615,0.64939 -2.7161,3.22081 c -1.4936,1.77148 -3.3234,4.67108 -4.0662,6.44356 l -1.3512,3.22271 0,3.87902 0,3.879 1.4184,4.71245 c 1.4086,4.68056 3.1693,7.62391 4.5605,7.62391 0.3993,0 4.2055,-2.96883 8.4581,-6.5974 z m 177.6319,58.67972 c -3.1502,-0.40407 -8.9214,-1.76159 -12.8251,-3.01675 l -7.0972,-2.28208 -5.9469,-3.61208 c -3.2707,-1.98666 -8.2515,-5.4148 -11.0683,-7.61809 l -5.1214,-4.00601 -5.791,-6.81485 -5.7911,-6.81484 -3.0296,-5.70395 c -1.6664,-3.13715 -3.951,-8.63331 -5.0768,-12.21367 -1.1259,-3.58037 -3.0034,-11.68289 -4.1723,-18.00555 l -2.1253,-11.49579 0.4449,-4.52825 c 0.6432,-6.54184 3.4736,-21.07093 6.2629,-32.14786 2.7772,-11.02795 8.7169,-28.52702 11.6896,-34.43805 4.4282,-8.80581 15.5696,-26.49036 22.4079,-35.56836 3.9672,-5.26645 10.3037,-12.73638 14.0812,-16.59982 3.7776,-3.86346 10.0214,-9.40832 13.8753,-12.32187 l 7.0069,-5.2974 8.3044,-4.11505 8.3045,-4.11502 10.7276,-0.0674 10.7276,-0.0674 9.5143,3.83919 c 5.2328,2.11155 10.4156,3.91426 11.5173,4.00601 l 2.003,0.16683 0.5007,-5.55355 0.5007,-5.5536 1.8581,-2.83433 1.8578,-2.83431 5.5102,0.6476 5.51,0.6476 5.4128,2.56065 5.4128,2.56066 3.4935,3.29489 3.4937,3.29489 0,5.01445 c 0,2.75794 -0.2818,6.42354 -0.6263,8.14573 l -0.6261,3.13127 -3.9503,4.48782 -3.9506,4.4878 0.6297,1.01889 0.6298,1.01886 1.8329,0 1.833,0 2.3132,1.87311 2.3131,1.87311 -1.1894,13.90052 c -1.3688,15.9987 -2.396,23.6417 -4.5357,33.74705 -0.8378,3.95675 -1.9598,9.44743 -2.4933,12.20157 -0.5337,2.75413 -1.712,8.32053 -2.6186,12.36978 l -1.6485,7.36224 -2.4862,4.90614 -2.486,4.90616 -0.8678,0 -0.8678,0 -0.604,-2.25339 c -0.3322,-1.23936 -0.6099,-4.63389 -0.6176,-7.54343 l -0.02,-5.29006 -1.3532,-3.23884 -1.3532,-3.23887 -0.7386,-12.96335 -0.7384,-12.96337 -4.2914,-12.55878 -4.2915,-12.5588 -4.3125,-8.40961 -4.313,-8.4096 -3.5983,-3.7826 -3.5984,-3.78262 -2.7746,-0.6964 -2.7748,-0.69643 -4.3865,1.67518 c -2.4125,0.92136 -7.2377,3.557 -10.7225,5.85696 l -6.3364,4.18176 -9.3339,9.46135 -9.3342,9.46131 -7.378,11.09063 -7.3782,11.09061 -7.0006,14.52178 c -7.5179,15.59525 -12.5537,28.48814 -16.6556,42.64271 l -2.5716,8.87469 -0.6202,7.54123 -0.6203,7.54126 -2.3443,2.82064 -2.3442,2.82067 1.4738,2.84983 c 0.8106,1.56745 2.7577,3.90356 4.327,5.19137 l 2.8531,2.34152 2.6829,4.69834 2.6825,4.69837 4.7494,4.86333 4.7493,4.86335 4.8525,2.34143 4.8524,2.34143 11.1717,-0.52481 11.1716,-0.52484 9.6982,-3.14168 c 5.3341,-1.72791 12.2895,-4.2877 15.4567,-5.68837 l 5.7586,-2.54669 1.7794,0.46535 1.7797,0.46532 2.8762,-2.74868 2.8763,-2.74872 7.062,-2.69859 7.0623,-2.69864 1.8665,-2.06238 c 1.0266,-1.1343 3.0433,-2.67098 4.4819,-3.41484 l 2.6154,-1.35249 1.188,-2.80135 1.1881,-2.80137 5.6686,-3.44342 c 3.1178,-1.89385 7.3617,-4.97307 9.4312,-6.84263 l 3.7623,-3.39922 3.9749,-6.29371 3.9749,-6.29369 1.4979,-0.57479 1.4979,-0.57479 1.2256,1.47687 1.2256,1.47687 -1.1169,2.21924 c -0.6143,1.22057 -2.2238,6.81041 -3.5768,12.42187 l -2.4597,10.20261 -4.8338,8.82593 -4.8338,8.8259 -6.6938,6.69867 -6.6937,6.69868 -2.8735,1.48582 -2.8732,1.48585 -1.9308,-0.17247 -1.9308,-0.17248 -2.7863,5.50826 -2.7861,5.50827 -10.7563,6.70176 -10.7562,6.70176 -9.0136,2.99322 -9.0135,2.99325 -7.8341,1.07114 c -8.5794,1.17307 -13.2375,1.18876 -21.9297,0.0739 z m -944.56028,-17.42052 -3.86841,-1.45384 -2.98332,-2.83333 -2.98332,-2.83333 -1.96661,-3.82412 -1.9666,-3.82414 -0.56229,-4.74737 -0.5623,-4.74739 2.38903,-2.77724 2.38883,-2.77726 6.27556,-0.73993 6.27555,-0.73995 1.70479,-1.7048 1.70478,-1.70479 0.51379,-9.23484 0.51359,-9.23485 3.00445,-0.51172 3.00465,-0.51171 0.31073,-2.68666 0.31093,-2.68666 -2.81467,-1.79222 c -1.54801,-0.9857 -3.14573,-2.25329 -3.55024,-2.81683 l -0.73597,-1.02464 -0.0201,-28.82459 -0.0201,-28.82463 1.25197,-0.38568 c 0.68847,-0.21211 2.44156,-0.64476 3.89558,-0.96142 l 2.64361,-0.57576 0.63615,-1.65749 0.63595,-1.65749 -1.27673,-1.70929 c -0.70215,-0.94009 -2.79374,-3.69087 -4.64805,-6.11278 l -3.37112,-4.40352 0.80962,-16.02403 c 0.44516,-8.81321 0.83559,-20.38264 0.86739,-25.70985 l 0.0584,-9.68581 -2.41821,-2.57235 -2.41842,-2.57232 -5.59372,-2.08571 -5.59372,-2.08571 -2.17229,-2.02907 -2.17248,-2.02908 -2.13284,-4.95778 -2.13264,-4.95777 -0.16503,-5.91943 -0.16502,-5.9194 2.34556,-2.49676 2.34556,-2.49678 8.63339,-3.15583 8.6336,-3.15585 15.52316,-2.89648 15.52336,-2.89646 18.0269,0.0213 18.02711,0.0213 9.63038,0.9372 9.63038,0.9372 8.22989,3.00354 c 4.5265,1.65194 11.01638,4.56182 14.42212,6.46641 3.40575,1.9046 8.23311,5.2593 10.7274,7.45493 l 4.53515,3.99202 6.35344,8.85894 6.35324,8.85895 4.79959,10.01503 4.79979,10.01501 1.68205,6.50977 1.68204,6.50977 0.0906,7.51124 0.0906,7.51127 -1.29705,5.50827 -1.29725,5.50826 -3.91531,8.01201 -3.9153,8.012 -5.75432,6.6861 c -3.16485,3.67735 -8.00771,8.68701 -10.76181,11.13259 -2.75429,2.44558 -8.53739,6.97834 -12.85177,10.07278 l -7.8443,5.62627 -12.18584,5.89588 c -15.36257,7.43292 -33.28965,14.61007 -41.73005,16.70679 -3.58042,0.88942 -8.17957,2.0457 -10.22044,2.56953 l -3.71043,0.95237 -1.54741,1.54731 -1.5472,1.54734 0,12.9935 0,12.99352 2.29706,2.29722 2.29726,2.29718 4.08254,0.65283 4.08254,0.65281 1.25419,1.51122 1.25418,1.51122 5.13528,0.0141 5.13508,0.0141 4.32303,1.50567 4.32284,1.50566 0.92776,-0.57332 c 0.87342,-0.53987 21.95569,-1.66091 28.48361,-1.51458 1.65246,0.037 4.58184,0.0739 6.50961,0.0817 1.92797,0.008 4.11937,0.23437 4.87003,0.50338 l 1.36467,0.48914 -1.23688,1.49039 -1.23708,1.49041 -1.56411,0 c -0.86034,0 -3.62188,0.95745 -6.13669,2.12767 -2.51501,1.1702 -7.27677,3.38441 -10.58169,4.92046 -3.30491,1.53604 -8.71308,3.5561 -12.018,4.48899 -3.30491,0.93291 -7.48889,2.32409 -9.29792,3.09155 l -3.28881,1.39538 -3.74928,0 -3.74907,0 -2.1904,1.53413 c -3.27432,2.29349 -9.67687,4.36642 -20.28834,6.56873 l -9.51426,1.9746 -12.018,0.50031 -12.018,0.50032 -3.86862,-1.45382 z m 74.83978,-111.4666 8.87811,-3.50831 4.3341,0.64993 4.33431,0.64996 1.60556,-2.45042 1.60557,-2.45043 -0.60314,-2.40326 -0.60315,-2.40323 1.97627,-1.78865 1.97647,-1.78862 2.15035,1.15082 2.15035,1.15083 1.52466,-1.26528 1.52446,-1.26529 -0.55725,-2.78608 -0.55706,-2.78607 5.00265,-5.71685 c 6.2494,-7.14167 11.28948,-14.69071 14.77613,-22.13221 l 2.69392,-5.74955 6e-4,-9.01351 6.1e-4,-9.01353 -2.66434,-5.68366 -2.66434,-5.68366 -4.09824,-4.4461 -4.09844,-4.4461 -5.83945,-2.62065 -5.83965,-2.62065 -7.68511,-1.14301 -7.6851,-1.14302 -9.75778,1.18407 c -5.36671,0.65124 -10.50944,1.40116 -11.42814,1.66649 l -1.67057,0.48239 -3.46913,-3.04595 -3.46914,-3.04595 -2.08595,0 -2.08594,0 -1.03684,1.93717 c -0.57014,1.06543 -1.03664,3.01797 -1.03664,4.33895 l 0,2.40181 -3.67722,2.42117 c -2.02236,1.33165 -4.56011,3.62176 -5.63941,5.08915 l -1.96238,2.66799 -0.82412,15.85981 -0.82431,15.85979 -0.0463,28.60177 -0.0463,28.60176 1.25197,1.57846 c 0.68847,0.86817 1.92776,1.78134 2.75409,2.0293 l 1.50233,0.45082 11.51709,-2.43204 11.5173,-2.43204 8.87811,-3.50832 z m 94.27663,109.15576 c -1.65246,-0.21916 -5.40496,-1.07562 -8.33897,-1.9032 l -5.33451,-1.5047 -4.22322,-4.22317 -4.22301,-4.2232 -4.39931,-11.50021 -4.39911,-11.50025 -0.41779,-13.48098 -0.418,-13.481 1.18938,-7.3736 1.18959,-7.37359 2.41177,-7.09096 c 1.32643,-3.90003 4.02841,-10.03217 6.00447,-13.62695 4.30271,-7.82783 11.15485,-16.93414 17.68015,-23.49643 l 4.77484,-4.80187 8.30093,-3.98301 8.30073,-3.983 5.1063,-0.60477 5.1063,-0.60476 5.19565,2.82784 5.19565,2.82781 5.31801,5.10974 5.31801,5.10976 2.49731,4.95731 2.4975,4.95733 1.12619,5.30717 1.12599,5.30718 0,12.71986 0,12.71986 -1.04549,3.76511 -1.04569,3.7651 -2.20368,1.42993 -2.20368,1.42994 -7.01052,1.14629 c -7.02883,1.1493 -41.55757,9.72509 -49.07363,12.18832 l -4.00606,1.31285 -1.74564,3.56836 -1.74564,3.56833 1.69814,4.44368 c 0.934,2.44401 2.74967,6.15004 4.03465,8.2356 l 2.3363,3.79192 3.21939,2.03041 3.21938,2.03042 6.09886,-0.43625 6.09886,-0.43625 6.41985,-2.83135 c 3.53112,-1.55723 11.82561,-6.06529 18.43242,-10.01787 l 12.01237,-7.18655 1.36447,0.52363 1.36447,0.52361 -0.53532,3.29956 c -0.29463,1.81475 -1.44417,5.35348 -2.55446,7.8638 l -2.01913,4.56425 -2.48845,0 -2.48845,0 -1.64098,1.64091 -1.64099,1.6409 0.15899,4.11772 c 0.0885,2.26476 0.11873,4.60636 0.0664,5.20355 l -0.0926,1.0858 -8.79137,4.17793 -8.79157,4.17796 -6.98215,1.479 c -6.91512,1.46481 -9.17133,1.58747 -14.99407,0.81518 z m 9.57282,-73.90109 16.46622,-3.70315 4.17089,-1.81595 4.17069,-1.81597 1.08714,-2.03137 1.08715,-2.03135 0,-10.56134 0,-10.56136 -1.61462,-4.03541 -1.61462,-4.03539 -2.36529,-0.59363 -2.36528,-0.59362 -4.52086,2.18852 -4.52087,2.18853 -7.48305,6.98828 c -4.11554,3.84356 -9.01959,9.1014 -10.89785,11.68413 -1.87826,2.58271 -5.32485,8.37863 -7.65914,12.87983 l -4.24415,8.18398 0.70961,1.14819 0.7096,1.14819 1.20911,-0.464 c 0.66513,-0.25519 8.6189,-2.13039 17.67532,-4.16711 z m 317.29986,72.21552 c -1.99277,-0.71208 -5.26407,-2.30889 -7.26972,-3.54844 l -3.64664,-2.25371 -2.50596,-4.27607 c -1.37835,-2.35182 -4.19101,-8.96006 -6.2506,-14.68498 l -3.74464,-10.40895 0.0926,-16.02403 0.0926,-16.02403 2.17007,-8.01202 2.16987,-8.01203 4.0606,-8.51274 4.06061,-8.51279 5.42467,-7.09778 c 2.98352,-3.90379 7.91977,-9.45753 10.9693,-12.34165 l 5.54461,-5.24387 7.54283,-3.485 7.54262,-3.48499 4.87527,-0.5774 4.8753,-0.57741 4.3395,2.11892 4.3395,2.11889 6.218,5.56492 6.2176,5.56493 3.2967,6.69073 3.2965,6.69074 0.3244,17.55278 0.3246,17.55276 -1.031,2.70175 -1.031,2.70175 -2.2981,1.49101 -2.298,1.49102 -9.0442,1.55855 c -4.9745,0.85723 -17.5934,3.83473 -28.04206,6.6167 l -18.99793,5.05812 -4.50658,2.21008 -4.50678,2.21007 0.16905,6.17989 0.16905,6.1799 2.04369,4.62006 2.04369,4.6201 3.51441,1.46841 3.51442,1.46844 7.29307,-0.0161 7.29307,-0.0161 8.44643,-3.4252 8.44647,-3.42521 1.9022,1.0181 1.9024,1.01812 1.8297,-1.65577 c 1.0063,-0.9107 2.0794,-2.63663 2.3846,-3.83547 l 0.5551,-2.17967 6.3007,-4.25638 6.3007,-4.25639 1.8429,0 1.8428,0 2.8648,-2.03982 c 1.5754,-1.1219 4.9499,-2.96227 7.4985,-4.08971 l 4.6342,-2.04984 0.5234,0.52359 0.5237,0.52359 -1.6786,4.39553 -1.6786,4.3955 -3.9051,5.15943 c -2.1479,2.83767 -4.8044,6.92255 -5.9038,9.07751 l -1.999,3.91806 -5.0679,4.43324 -5.0677,4.43322 -9.2385,4.6496 -9.2384,4.6496 -4.76595,1.25041 -4.76618,1.2504 -1.55002,-2.21312 -1.55023,-2.21312 -2.69714,0.004 -2.69734,0.004 -4.00607,2.46738 c -2.20348,1.35704 -4.68207,2.46164 -5.5084,2.45468 -0.82612,-0.006 -3.13264,-0.59534 -5.12541,-1.30746 z m 16.1418,-71.78762 c 7.43616,-1.64717 16.34169,-3.92302 19.78989,-5.05744 l 6.2697,-2.06258 1.1056,-2.06611 1.1059,-2.06608 0.1348,-11.61949 0.1349,-11.61947 -2.0842,-3.50526 -2.0841,-3.50526 -3.5072,0.0994 -3.5071,0.0994 -6.15665,4.18099 -6.15682,4.18101 -2.37937,-0.5972 -2.37937,-0.59719 -1.64723,1.64712 -1.64702,1.64715 0.61341,2.44423 0.61361,2.44425 -3.97126,5.24496 c -2.18395,2.88473 -5.83985,8.68051 -8.12382,12.87951 l -4.15258,7.63464 0,2.24688 0,2.24689 2.25339,-0.65269 c 1.23929,-0.35899 8.33735,-2.0004 15.77351,-3.64756 z m 622.20289,72.46612 -2.2332,-0.43142 -2.0232,-2.57177 -2.0228,-2.57178 0,-1.7453 0,-1.74531 -1.4143,-1.17383 -1.4144,-1.17382 -6.0695,2.55453 c -3.3381,1.40505 -9.5744,3.71181 -13.8584,5.12619 l -7.7892,2.57158 -9.0938,0.56879 -9.0939,0.56879 -5.3138,-1.76502 -5.3139,-1.76501 -3.864,-3.49083 -3.8637,-3.49087 -1.5084,-5.07792 -1.5078,-5.07792 0,-4.78018 0,-4.78017 2.4265,-6.68476 2.4263,-6.68477 3.7486,-5.44239 3.748,-5.44238 5.5929,-4.03779 5.593,-4.0378 12.018,-5.85475 12.0182,-5.85474 8.8221,-2.19975 8.8228,-2.19976 2.1029,-1.70303 2.103,-1.70305 -1.1057,-9.7333 -1.1056,-9.7333 -1.8076,-3.69872 -1.8079,-3.69874 -8.0121,-0.28199 -8.0119,-0.28197 -8.012,3.89461 -8.0121,3.89464 -7.5112,5.57303 c -4.1313,3.06519 -8.0868,6.17161 -8.7902,6.90313 -0.7034,0.73157 -2.3621,2.68211 -3.6861,4.33459 l -2.4069,3.00451 -1.2047,-1.18489 -1.2043,-1.18488 2.7026,-6.82714 c 1.4862,-3.75491 4.1377,-9.24006 5.8918,-12.18918 l 3.1894,-5.36209 5.8829,-4.93381 c 3.2353,-2.7136 7.7569,-6.03222 10.0478,-7.37473 2.2908,-1.34252 6.1783,-3.15738 8.639,-4.03304 l 4.474,-1.59208 7.2075,-0.0405 7.2073,-0.0405 5.3571,2.45253 5.3571,2.45252 3.6693,3.22184 3.6696,3.22186 2.4293,5.18964 2.4295,5.18965 1.1388,5.41208 1.1387,5.41207 0.9642,14.11722 c 0.5303,7.76448 0.9708,18.06063 0.9791,22.88037 l 0.02,8.76312 0.9425,0 c 0.5182,0 1.2207,-0.45066 1.5612,-1.0015 l 0.6189,-1.0015 2.069,0 2.0693,0 -0.6501,3.25489 c -0.3574,1.79019 -1.9911,6.1222 -3.6305,9.62672 l -2.9803,6.37183 0,1.89054 0,1.89057 1.0568,0 c 0.5808,0 3.6231,-1.31625 6.7601,-2.92499 8.4062,-4.31121 14.6908,-7.09004 16.0344,-7.09004 l 1.1859,0 0,0.9307 c 0,0.51188 -1.8338,3.69152 -4.0751,7.06588 l -4.0751,6.13521 -0.7718,4.88297 -0.772,4.88295 -1.6226,2.47649 -1.6225,2.47648 -5.2981,3.00736 -5.2981,3.00735 -5.4395,1.59585 c -2.9918,0.87771 -5.696,1.53449 -6.0091,1.45946 -0.3132,-0.0751 -1.5744,-0.33051 -2.8028,-0.56779 z m -35.8173,-22.80094 7.6939,-1.47206 5.6642,-2.58332 c 3.1151,-1.42082 7.3563,-3.75042 9.4243,-5.17691 l 3.76,-2.59364 1.9986,-3.23386 1.9986,-3.23385 0,-4.18369 0,-4.18371 -2.4583,-2.45822 -2.4583,-2.45824 -1.9263,0 -1.9264,0 -1.5053,-2.25337 -1.5052,-2.25339 -1.9165,1.72167 -1.9165,1.72167 -6.7786,2.09375 -6.7787,2.09376 -3.6925,3.26364 c -2.0306,1.79502 -5.8161,4.76196 -8.4125,6.59323 l -4.7203,3.32959 -2.4405,3.61236 c -1.3421,1.98681 -2.7483,4.64848 -3.1244,5.9148 l -0.684,2.30243 1.6083,2.4547 1.6086,2.45474 5.3973,0 5.3969,0 7.6936,-1.47208 z m -507.5985,18.09929 -3.6746,-3.67465 -2.5038,-4.94073 -2.5037,-4.94075 0,-2.47794 0,-2.47794 1.2471,-0.77065 1.2468,-0.77062 8.5178,-0.0396 8.5177,-0.0396 0.603,-20.03006 0.6029,-20.03002 1.2297,-5.24339 1.2294,-5.24337 -0.3303,-12.95645 -0.3302,-12.95642 -2.218,-2.35792 -2.2182,-2.35792 0.579,-2.21426 0.5792,-2.21429 -1.6834,-0.64599 -1.6835,-0.64599 -2.1859,1.15024 -2.1856,1.15022 -5.0077,-1.91511 -5.0075,-1.91514 -0.3409,-1.69513 -0.3411,-1.69512 2.2234,-2.36663 2.2232,-2.36663 8.6336,-3.17211 8.6334,-3.17213 5.571,-0.11834 5.5709,-0.11833 2.7751,1.81826 2.775,1.81827 1.4186,3.39518 1.4188,3.39519 0,5.03969 0,5.03968 1.2518,-5.6e-4 1.2519,-5.5e-4 5.7276,-6.40481 5.7274,-6.4048 4.3534,-2.1074 4.3532,-2.10743 4.6094,0 c 2.5351,0 5.3569,0.2868 6.2703,0.63734 l 1.6609,0.63736 0.9,2.36715 0.9,2.36717 2.8419,0 2.842,0 2.5671,2.75412 2.5672,2.75414 4.13,8.54796 4.1298,8.54796 -0.058,1.96782 c -0.032,1.0823 -0.8611,5.0499 -1.8432,8.81693 l -1.7855,6.8491 -4.4162,1.97306 -4.416,1.97309 -2.6609,2.54273 -2.6609,2.54272 -5.9786,-2.68302 -5.9785,-2.68299 -1.0875,-2.38676 -1.0874,-2.38675 0.8298,-0.51291 0.8299,-0.5129 1.7914,1.97939 1.7913,1.9794 2.6579,0 2.6579,0 1.6402,-1.25189 1.6403,-1.25187 1.541,-4.50675 c 0.8477,-2.47873 1.5476,-5.31592 1.5557,-6.30492 l 0.02,-1.79814 -2.5038,-2.50377 c -1.3769,-1.37706 -2.5037,-2.85538 -2.5037,-3.28515 0,-0.42979 -1.0431,-1.76131 -2.3178,-2.95899 l -2.318,-2.17766 -5.4714,0 -5.4711,0 -2.248,1.5745 -2.2477,1.57447 -2.8431,5.6864 c -1.5637,3.12754 -3.5697,7.93979 -4.4579,10.69392 -0.8883,2.75412 -2.7665,11.75791 -4.1743,20.00841 l -2.5593,15.00088 -0.1006,7.76178 -0.1006,7.76174 1.716,2.61896 1.7161,2.61896 4.3039,1.90387 4.3041,1.9039 0.5448,2.08337 0.5448,2.08338 2.0541,-1.09933 2.0542,-1.09932 1.9642,1.22669 1.9644,1.2267 2.4882,-1.33175 2.4885,-1.33174 2.8314,0.70672 c 1.557,0.38869 3.5071,1.28707 4.3335,1.99644 0.8263,0.70932 2.7508,1.58648 4.2769,1.94919 l 2.7746,0.65952 2.09,-1.11852 2.09,-1.11853 0.9583,0.95837 0.9584,0.95837 -1.7159,1.71591 -1.716,1.71595 -2.03,-0.53089 -2.0304,-0.53092 -2.5776,1.38723 c -3.9168,2.10795 -12.0997,4.52656 -15.3147,4.52656 l -2.866,0 -4.2166,2.18251 -4.2163,2.18249 -11.0166,0.7417 c -6.059,0.40792 -15.3344,1.06433 -20.6118,1.45866 l -9.5953,0.71699 -3.6749,-3.67465 z m 581.1058,0.75797 c -1.4303,-1.57486 -3.3456,-3.97772 -4.2562,-5.33963 l -1.6559,-2.47623 0,-2.78167 0,-2.78165 1.9634,-1.96357 1.9636,-1.96357 5.5464,-1.61236 5.5464,-1.61237 0.571,-2.27486 0.5709,-2.27487 -0.3192,-35.96191 -0.3193,-35.96192 -2.0572,-3.50184 -2.057,-3.50185 -3.4512,-2.32572 -3.4512,-2.3257 0,-1.18296 0,-1.18294 9.5144,-3.22939 c 5.2327,-1.77617 10.4155,-3.24086 11.5173,-3.25485 l 2.0029,-0.0254 2.5951,3.25486 2.5953,3.25485 1.2813,4.006 c 0.7048,2.20332 1.6629,4.41924 2.1288,4.92427 l 0.8475,0.91824 7.2941,-7.57619 7.2941,-7.57621 4.2564,-1.14229 4.2562,-1.14229 3.7777,1.01719 3.7774,1.0172 4.2496,3.1251 4.2494,3.12514 2.3906,4.15867 c 1.3148,2.28728 2.6873,5.58352 3.0495,7.32503 l 0.6591,3.16632 -1.129,6.34794 c -0.621,3.49136 -2.2663,10.11034 -3.6561,14.70885 l -2.5269,8.36094 -5.9235,6.07232 -5.9234,6.07235 -0.6152,-0.6152 -0.615,-0.61518 1.7134,-6.9919 1.7132,-6.9919 -0.5697,-10.2587 -0.5697,-10.25871 -1.0109,-1.01093 -1.0109,-1.0109 -5.5615,1.75307 -5.5613,1.75308 -3.0842,4.19262 c -1.6963,2.30596 -3.7066,5.64342 -4.4673,7.41662 l -1.3834,3.224 -2.5031,16.49264 -2.5034,16.49263 0,6.12179 0,6.12178 1.4653,2.83341 c 0.8058,1.55837 2.0453,3.05005 2.7541,3.31487 0.709,0.26479 6.697,0.15939 13.307,-0.23429 l 12.018,-0.71574 0.9052,0.81019 0.9053,0.8102 -2.7457,3.59985 c -1.5104,1.97993 -4.2061,4.55705 -5.9908,5.72695 l -3.2449,2.12709 -2.1651,3.30286 -2.1648,3.3029 -2.6195,1.71619 -2.6192,1.71622 -9.6596,0.72474 c -5.3126,0.39861 -13.9409,1.041 -19.1738,1.4275 l -9.5143,0.70272 -2.6005,-2.86341 z m 85.545,1.01252 c -1.2008,-1.03011 -3.3417,-3.62585 -4.7571,-5.76833 l -2.574,-3.89538 0,-1.94028 0,-1.94029 2.806,-2.80587 2.8058,-2.80588 4.147,-0.70065 4.1471,-0.70061 0.9668,-1.17359 0.9668,-1.17358 0.2134,-35.05257 0.2135,-35.05257 -1,-4.79324 -1,-4.79323 -1.7634,-1.94866 -1.7637,-1.94866 -5.119,-1.90699 -5.1192,-1.90698 -0.2731,-1.36614 -0.2731,-1.36616 12.6981,-2.26597 12.698,-2.26598 2.5975,1.65201 c 1.4287,0.9086 3.5955,2.82965 4.8151,4.26898 l 2.2176,2.61697 0.6482,3.25488 0.648,3.25489 1.1403,-0.008 1.1405,-0.008 4.706,-5.90218 4.7062,-5.9022 5.5058,-2.69372 5.5057,-2.6937 3.3084,0.7127 c 1.8197,0.39199 4.6605,1.38588 6.313,2.20867 3.8557,1.91984 8.3254,6.07535 10.0188,9.31466 l 1.3274,2.5391 -1.4295,12.98418 -1.4294,12.98418 -2.9661,4.50676 c -1.6313,2.47871 -3.737,5.97147 -4.6796,7.76164 l -1.7134,3.25489 -1.6215,0 -1.6213,0 -0.097,-8.26239 -0.097,-8.26239 -1.7027,-4.23716 -1.703,-4.23715 -3.2719,-2.02223 -3.2721,-2.02223 -2.5126,0 -2.5126,0 -2.0033,4.75713 c -1.1018,2.61642 -2.7086,7.01052 -3.5707,9.76463 -1.7006,5.43146 -5.1896,26.71679 -6.2597,38.18673 l -0.6661,7.14018 1.1702,3.54587 c 0.6434,1.95023 1.7107,3.98729 2.3708,4.52686 l 1.2006,0.98099 5.5084,-0.98561 c 3.0296,-0.54209 8.2122,-1.1072 11.5173,-1.25578 3.3049,-0.14852 6.7519,-0.59185 7.6603,-0.98506 l 1.6515,-0.71487 0.7088,1.14718 0.7092,1.14716 -6.5837,6.32953 -6.5836,6.32951 -1.5645,3.91021 -1.5648,3.91022 -3.2055,1.89363 -3.2059,1.89366 -9.5341,0.70749 c -5.2438,0.38913 -13.5902,1.03257 -18.5478,1.42981 l -9.0133,0.72231 -2.1834,-1.87293 z m 113.8508,0.0849 -5.5082,-1.51265 -5.3221,-3.6435 -5.3218,-3.64352 -3.9264,-4.5911 -3.9262,-4.59108 -2.9185,-6.00902 -2.9183,-6.009 -1.1032,-5.30718 -1.1033,-5.30719 0.02,-9.2146 0.02,-9.2146 0.9738,-6.73346 0.9739,-6.73346 2.1505,-6.28606 c 2.8308,-8.27376 7.4219,-17.39474 11.1152,-22.08145 l 2.9767,-3.77737 6.2812,-4.48224 c 3.4548,-2.46526 8.744,-5.60978 11.7543,-6.98784 l 5.4728,-2.50555 7.4235,-0.6051 7.4233,-0.60512 6.9882,1.64411 6.9881,1.64413 4.1842,2.45202 4.184,2.45202 3.0964,3.90957 3.0964,3.90955 3.4764,7.37059 c 1.9121,4.05382 4.194,10.07466 5.0711,13.37962 l 1.5947,6.00902 0.5599,9.51426 0.5596,9.51428 -1.6202,8.51274 c -0.8914,4.68205 -2.0826,10.16458 -2.6473,12.18341 l -1.0269,3.67065 -3.4817,2.05421 -3.4816,2.05423 0,1.54962 c 0,0.85229 0.5559,2.43976 1.2353,3.52772 l 1.2353,1.9781 -1.9864,3.7028 c -1.0925,2.03656 -4.0869,6.00419 -6.6541,8.81697 l -4.6677,5.11413 -5.3472,2.95217 -5.3476,2.95216 -12.5187,0.24283 -12.5187,0.24283 -5.5082,-1.51265 z m 23.9925,-20.73598 5.5233,-1.25187 3.8322,-3.81794 3.8322,-3.81792 1.9464,-4.54139 1.9469,-4.5414 1.1037,-7.11355 1.1036,-7.11356 -0.6659,-14.07143 c -0.3663,-7.73928 -0.6476,-16.16501 -0.6249,-18.72383 l 0.04,-4.65238 -2.705,-1.77246 c -1.4881,-0.97488 -5.1037,-3.72605 -8.0353,-6.11378 l -5.3297,-4.3413 -3.2846,0 -3.2846,0 -5.1417,1.52693 -5.1417,1.52696 -3.226,2.71451 -3.2261,2.71453 -3.8092,5.89339 -3.8091,5.89338 -0.6109,3.63579 c -0.3361,1.99969 -0.8211,4.40448 -1.0777,5.34397 -0.2568,0.93952 -2.2456,3.86065 -4.4195,6.49142 l -3.9525,4.78321 0,1.54843 0,1.54842 1.8483,1.58264 1.8484,1.58264 0.6879,5.8539 0.6881,5.85388 4.3295,9.13966 4.3296,9.13965 2.9353,2.09016 c 3.4645,2.46685 8.516,4.04527 13.3486,4.17085 1.9117,0.0497 5.9614,-0.47302 8.9993,-1.16153 z m 89.3973,19.7018 -5.1805,-2.58163 -2.5752,-3.06038 c -1.4164,-1.68318 -3.414,-4.70452 -4.4392,-6.71403 l -1.8639,-3.65366 -1.0928,-5.91082 -1.0924,-5.91079 -0.07,-26.60626 -0.071,-26.60624 -0.783,-2.00299 -0.7831,-2.00302 -7.2277,0 -7.2276,0 -3.9369,-4.2176 -3.9366,-4.2176 0,-2.55612 0,-2.55613 -1.1596,-1.85675 -1.1594,-1.85674 0.5458,-1.42276 0.546,-1.42277 5.9082,-3.09704 5.9081,-3.09705 5.7789,-1.29321 5.7787,-1.2932 1.195,-2.0813 1.1948,-2.08128 -0.2568,-20.35846 -0.257,-20.35848 -1.0644,-1.98896 -1.0644,-1.98897 1.1936,-1.43823 1.1936,-1.43823 1.9998,0 1.9998,0 5.8604,3.56002 5.8606,3.56004 2.1081,2.9605 2.1081,2.9605 0.583,15.16987 0.583,15.16988 1.8602,1.86013 1.8601,1.86015 2.7388,-0.65813 c 1.5064,-0.36196 4.3162,-1.43875 6.2442,-2.39289 l 3.5053,-1.73475 7.8675,-0.72226 7.8676,-0.72225 3.6497,-1.55511 3.6496,-1.55513 5.2472,-0.10204 5.247,-0.10203 0.4906,1.2795 0.4909,1.27952 -1.7318,1.41163 c -0.9525,0.77642 -3.8457,3.13001 -6.4293,5.23026 -2.5836,2.10022 -8.5203,7.23339 -13.1925,11.40703 l -8.4949,7.58841 -8.8407,3.34325 c -4.8622,1.8388 -9.5165,3.96013 -10.3428,4.71409 l -1.5021,1.37081 -0.3226,27.75758 -0.3228,27.75759 0.6492,5.29056 0.649,5.29056 2.3242,2.70184 2.3239,2.70185 3.0783,-1.48265 3.0783,-1.48262 11.3995,-11.15265 c 6.2698,-6.13398 12.3765,-11.6756 13.5709,-12.31472 l 2.1713,-1.16208 0.8549,0.52842 0.8549,0.52842 -0.8096,4.27504 c -0.4454,2.35126 -1.5293,5.98382 -2.4088,8.07235 l -1.5991,3.79733 -3.1083,2.7772 -3.1081,2.77718 1.159,2.16576 1.159,2.16575 -1.5726,3.77851 -1.5727,3.7785 -4.2088,4.38089 c -2.3151,2.4095 -6.2127,5.6769 -8.6615,7.2609 l -4.4527,2.87999 -5.616,0 -5.6163,0 -5.1808,-2.58162 z"
       id="path4376"
       inkscape:connector-curvature="0" />
  </g>
</svg>
